<?xml version="1.0" encoding="UTF-8"?>
<!DOCTYPE svg PUBLIC "-//W3C//DTD SVG 1.1//EN" "http://www.w3.org/Graphics/SVG/1.1/DTD/svg11.dtd">
<!-- Creator: CorelDRAW 2020 (64-Bit) -->
<svg xmlns="http://www.w3.org/2000/svg" xml:space="preserve" width="0.669299in" height="0.669299in" version="1.1" style="shape-rendering:geometricPrecision; text-rendering:geometricPrecision; image-rendering:optimizeQuality; fill-rule:evenodd; clip-rule:evenodd"
viewBox="0 0 669.3 669.3"
 xmlns:xlink="http://www.w3.org/1999/xlink"
 xmlns:xodm="http://www.corel.com/coreldraw/odm/2003">
 <defs>
  <style type="text/css">
   <![CDATA[
    .fil0 {fill:none}
    .fil2 {fill:#333333}
    .fil1 {fill:#FF494E}
   ]]>
  </style>
 </defs>
 <g id="Layer_x0020_1">
  <metadata id="CorelCorpID_0Corel-Layer"/>
  <g id="_2819843601136">
   <rect class="fil0" x="-2.01" y="2.02" width="669.29" height="669.29"/>
   <g id="_2487256408736">
    <path class="fil1" d="M473.08 327.15c-82.46,0 -149.51,67.96 -149.51,149.51 0,83.36 67.96,149.51 149.51,149.51 81.55,0 149.51,-66.15 149.51,-149.51 0,-82.45 -67.05,-149.51 -149.51,-149.51zm108.74 215.66c-0.91,-10.87 -7.25,-20.84 -16.31,-26.28 -15.4,-8.16 -30.81,-15.4 -47.11,-19.03 -4.53,-0.91 -8.16,0.91 -9.97,4.53l-29.9 52.56 -11.78 0 -29.9 -52.56c-1.81,-3.63 -6.34,-5.44 -10.87,-4.53 -15.4,4.53 -31.71,10.87 -46.21,19.03 -9.97,5.44 -16.31,15.41 -17.22,26.28l-0.91 6.34c-13.59,-21.74 -21.74,-46.21 -21.74,-72.49 0,-70.68 57.09,-131.39 131.39,-131.39 72.49,0 131.39,58.9 131.39,131.39 0,26.28 -7.25,50.74 -21.74,72.49l0.9 -6.34 -0.02 0z"/>
    <path class="fil1" d="M473.08 378.8c-29,0 -52.56,23.56 -52.56,52.56 0,29.9 23.56,66.14 52.56,66.14 29,0 52.56,-36.24 52.56,-66.14 -0.91,-29 -24.46,-52.56 -52.56,-52.56z"/>
    <path class="fil2" d="M453.15 310.84l0 -254.61c0,-4.53 -4.53,-9.06 -9.06,-9.06l-392.34 0c-4.53,0 -9.06,4.53 -9.06,9.06l0 511.04c0,5.44 4.53,9.06 9.06,9.06l285.42 0c-20.84,-28.09 -32.62,-61.61 -32.62,-98.77 0,-86.07 65.24,-157.66 148.6,-166.72l0 0zm-308.07 -83.36c0,-7.5 -6.09,-13.59 -13.59,-13.59 -7.51,0 -13.59,6.09 -13.59,13.59 0,7.51 6.08,13.59 13.59,13.59 7.5,0 13.59,-6.09 13.59,-13.59zm0 99.67c0,-7.5 -6.09,-13.59 -13.59,-13.59 -7.51,0 -13.59,6.09 -13.59,13.59 0,7.51 6.08,13.59 13.59,13.59 7.5,0 13.59,-6.08 13.59,-13.59zm0 -199.34c0,-7.5 -6.09,-13.59 -13.59,-13.59 -7.51,0 -13.59,6.09 -13.59,13.59 0,7.51 6.08,13.59 13.59,13.59 7.5,0 13.59,-6.09 13.59,-13.59zm0 298.11c0,-7.51 -6.09,-13.59 -13.59,-13.59 -7.51,0 -13.59,6.08 -13.59,13.59 0,7.51 6.08,13.59 13.59,13.59 7.5,0 13.59,-6.08 13.59,-13.59zm62.52 -307.17l179.41 0c4.53,0 9.06,3.63 9.06,9.06 0,5.44 -4.53,9.06 -9.06,9.06l-179.41 0c-4.53,0 -9.06,-3.62 -9.06,-9.06 0,-4.53 3.62,-9.06 9.06,-9.06zm0 99.67l179.41 0c4.53,0 9.06,3.63 9.06,9.06 0,4.53 -4.53,9.06 -9.06,9.06l-179.41 0c-4.53,0 -9.06,-4.53 -9.06,-9.06 0,-4.53 3.62,-9.06 9.06,-9.06zm0 99.67l123.23 0c5.43,0 9.06,3.63 9.06,9.06 0,5.44 -3.63,9.06 -9.06,9.06l-123.23 0c-4.53,0 -9.06,-3.62 -9.06,-9.06 0,-5.43 3.62,-9.06 9.06,-9.06zm-76.11 139.54c-17.22,0 -31.71,-14.5 -31.71,-31.71 0,-17.22 14.5,-31.71 31.71,-31.71 17.22,0 31.71,14.5 31.71,31.71 -0.91,18.12 -14.5,31.71 -31.71,31.71zm0 -99.67c-17.22,0 -31.71,-13.59 -31.71,-31.71 0,-17.22 14.5,-31.71 31.71,-31.71 17.22,0 31.71,14.5 31.71,31.71 -0.91,18.12 -14.5,31.71 -31.71,31.71zm0 -98.76c-17.22,0 -31.71,-14.5 -31.71,-31.71 0,-17.21 14.5,-31.71 31.71,-31.71 17.22,0 31.71,14.5 31.71,31.71 -0.91,17.22 -14.5,31.71 -31.71,31.71zm0 -99.67c-17.22,0 -31.71,-14.5 -31.71,-31.71 0,-17.22 14.5,-31.71 31.71,-31.71 17.22,0 31.71,14.5 31.71,31.71 -0.91,18.12 -14.5,31.71 -31.71,31.71zm116.89 275.46l-40.77 0c-4.53,0 -9.06,-4.53 -9.06,-9.06 0,-4.53 4.53,-9.06 9.06,-9.06l40.77 0c4.53,0 9.06,4.53 9.06,9.06 0,5.44 -4.53,9.06 -9.06,9.06z"/>
   </g>
  </g>
 </g>
</svg>
