<?xml version="1.0" encoding="UTF-8"?>
<!DOCTYPE svg PUBLIC "-//W3C//DTD SVG 1.1//EN" "http://www.w3.org/Graphics/SVG/1.1/DTD/svg11.dtd">
<!-- Creator: CorelDRAW 2020 (64-Bit) -->
<svg xmlns="http://www.w3.org/2000/svg" xml:space="preserve" width="0.626732in" height="0.626732in" version="1.1" style="shape-rendering:geometricPrecision; text-rendering:geometricPrecision; image-rendering:optimizeQuality; fill-rule:evenodd; clip-rule:evenodd"
viewBox="0 0 626.73 626.73"
 xmlns:xlink="http://www.w3.org/1999/xlink"
 xmlns:xodm="http://www.corel.com/coreldraw/odm/2003">
 <defs>
  <style type="text/css">
   <![CDATA[
    .fil0 {fill:none}
    .fil1 {fill:#FF494E}
    .fil2 {fill:white}
   ]]>
  </style>
 </defs>
 <g id="Layer_x0020_1">
  <metadata id="CorelCorpID_0Corel-Layer"/>
  <rect class="fil0" x="-2049.97" y="-471.44" width="4724.41" height="1574.8"/>
  <g id="_2221024308416">
   <path class="fil1" d="M230.9 2.61l162.67 0c127.61,0 232.02,104.42 232.02,232.02l0 162.68c0,127.6 -104.41,232.02 -232.02,232.02l-162.67 0c-127.61,0 -232.02,-104.42 -232.02,-232.02l0 -162.68c0,-127.6 104.41,-232.02 232.02,-232.02z"/>
   <path class="fil2" d="M149.43 339.28l0 -169.18c1.37,-14.73 11.68,-25.08 23.82,-30.09 4.11,-1.76 9.18,-2.42 13.62,-2.42l23.65 0.02c10.11,0.13 19.37,4.83 24.65,10.64 7.24,7.09 10.5,18.66 10.95,28.5l0 164.76c-0.13,8.29 1.24,16.39 3.98,24.15 2.81,7.83 6.92,14.89 12.28,21.22 5.35,6.33 11.62,11.56 18.86,15.6 7.25,4.05 14.95,6.72 23.18,7.96 8.42,1.17 16.71,0.72 24.94,-1.3 8.23,-2.03 15.87,-5.48 22.79,-10.38 6.92,-4.83 12.73,-10.84 17.36,-17.96 4.64,-7.05 7.9,-14.75 9.6,-23.05 1.76,-8.29 1.96,-16.58 0.52,-25 -1.37,-8.35 -4.24,-16.13 -8.61,-23.44 -4.37,-7.24 -9.92,-13.44 -16.65,-18.6 -11.39,-8.85 -21.23,-7.32 -31.6,-14.66 -7.04,-6.46 -9.37,-15.28 -9.53,-22.35l0 -35.59c0.26,-22.21 20.07,-21.31 29.28,-21.34 33.83,-0.18 56.7,8.91 82.18,32.31 7.31,6.73 13.84,14.04 19.72,22 5.87,7.97 10.96,16.39 15.2,25.33 4.31,8.88 7.7,18.15 10.19,27.68 2.55,9.53 4.18,19.26 4.83,29.12 0.71,9.86 0.45,19.72 -0.72,29.51 -1.18,9.86 -3.26,19.45 -6.27,28.85 -3,9.47 -6.85,18.48 -11.56,27.16 -4.7,8.75 -10.19,16.91 -16.45,24.55 -37.57,45.78 -78.33,51.02 -131.39,51.07 -89.78,0.1 -158.83,-54.81 -158.83,-155.07z"/>
  </g>
 </g>
</svg>
