<?xml version="1.0" encoding="UTF-8"?>
<!DOCTYPE svg PUBLIC "-//W3C//DTD SVG 1.1//EN" "http://www.w3.org/Graphics/SVG/1.1/DTD/svg11.dtd">
<!-- Creator: CorelDRAW 2020 (64-Bit) -->
<svg xmlns="http://www.w3.org/2000/svg" xml:space="preserve" width="0.669299in" height="0.669299in" version="1.1" style="shape-rendering:geometricPrecision; text-rendering:geometricPrecision; image-rendering:optimizeQuality; fill-rule:evenodd; clip-rule:evenodd"
viewBox="0 0 669.3 669.3"
 xmlns:xlink="http://www.w3.org/1999/xlink"
 xmlns:xodm="http://www.corel.com/coreldraw/odm/2003">
 <defs>
  <style type="text/css">
   <![CDATA[
    .fil0 {fill:none}
    .fil1 {fill:black}
    .fil2 {fill:#FF494E}
    .fil3 {fill:white;fill-rule:nonzero}
   ]]>
  </style>
 </defs>
 <g id="Layer_x0020_1">
  <metadata id="CorelCorpID_0Corel-Layer"/>
  <g id="_2821085949920">
   <rect class="fil0" x="-2.01" y="2.02" width="669.29" height="669.29"/>
   <g id="_2487780605744">
    <path class="fil1" d="M52.9 158.63c-4.89,7.28 -7.51,15.87 -7.51,24.65 0,0.03 0,0.06 0,0.09l0 244.08c0,0.02 0,0.05 0,0.08 0,10.28 3.58,20.24 10.12,28.16l160.93 -121.13 -163.54 -175.92 0 -0.01z"/>
    <path class="fil1" d="M350.82 375.86l-35.52 -26.12 -8.22 8.61c-8.98,9.64 -21.54,15.21 -34.71,15.39 -0.01,0 -0.04,0 -0.05,0 -2.17,0 -4.35,-0.17 -6.5,-0.5 -0.73,-0.11 -1.46,-0.25 -2.19,-0.4 -9.72,-2.09 -18.54,-7.2 -25.2,-14.58l-8.47 -9.11 -157.87 118.93c5.13,2.15 10.63,3.26 16.19,3.26 0,0 0.02,0 0.02,0l275.17 0c-10.13,-20.75 -15.41,-43.57 -15.41,-66.66 0,-9.66 0.95,-19.34 2.76,-28.82l0 -0.01 0 0.01z"/>
    <path class="fil2" d="M493.42 276.42c-0.04,0 -0.12,0 -0.17,0 -33.39,0 -65.35,13.52 -88.6,37.47 -49.17,50.13 -49.02,131.83 0.31,182.13 23.39,24.13 55.59,37.78 89.22,37.78 33.47,0 65.54,-13.53 88.91,-37.47 49.17,-50.13 49.04,-131.83 -0.31,-182.13 -23.42,-24.14 -55.64,-37.78 -89.28,-37.78 -0.01,0 -0.07,0 -0.09,0l0.01 0 -0 0z"/>
    <path class="fil1" d="M267.57 353.41c0.42,0.09 0.83,0.16 1.24,0.22 8.46,1.32 17.17,-1.96 23.86,-8.97l188.29 -197.36c-7.11,-5.03 -15.61,-7.75 -24.32,-7.76l-368.34 0c0,-0.01 -0.02,-0.01 -0.02,-0.01 -7.31,0 -14.52,1.92 -20.85,5.56l185.58 199.61c3.82,4.35 8.92,7.4 14.56,8.7l0 0.01z"/>
    <path class="fil1" d="M356.32 355.26c7.13,-20.72 18.82,-39.65 34.17,-55.3 26.94,-27.72 64.02,-43.39 102.69,-43.39 0.07,0 0.16,0 0.23,0 2.04,0 4.07,0 6.09,0.14l0 -73.35c0,-0.02 0,-0.04 0,-0.05 0,-7.37 -1.83,-14.63 -5.34,-21.11l-165.09 173.07 27.26 19.99 -0.01 0z"/>
    <polygon class="fil3" points="479.94,484.5 479.94,418.7 414.47,418.7 414.47,391.17 479.94,391.17 479.94,325.7 507.81,325.7 507.81,391.17 573.27,391.17 573.27,418.7 507.81,418.7 507.81,484.5 "/>
   </g>
  </g>
 </g>
</svg>
