<?xml version="1.0" encoding="UTF-8"?>
<!DOCTYPE svg PUBLIC "-//W3C//DTD SVG 1.1//EN" "http://www.w3.org/Graphics/SVG/1.1/DTD/svg11.dtd">
<!-- Creator: CorelDRAW 2020 (64-Bit) -->
<svg xmlns="http://www.w3.org/2000/svg" xml:space="preserve" width="0.669299in" height="0.669299in" version="1.1" style="shape-rendering:geometricPrecision; text-rendering:geometricPrecision; image-rendering:optimizeQuality; fill-rule:evenodd; clip-rule:evenodd"
viewBox="0 0 669.3 669.3"
 xmlns:xlink="http://www.w3.org/1999/xlink"
 xmlns:xodm="http://www.corel.com/coreldraw/odm/2003">
 <defs>
  <style type="text/css">
   <![CDATA[
    .fil0 {fill:none}
    .fil1 {fill:#333333}
    .fil2 {fill:#FF494E}
   ]]>
  </style>
 </defs>
 <g id="Layer_x0020_1">
  <metadata id="CorelCorpID_0Corel-Layer"/>
  <g id="_2821086176256">
   <rect class="fil0" x="-2.01" y="2.02" width="669.29" height="669.29"/>
   <g id="_2487262425104">
    <path class="fil1" d="M387.43 217.66l-214.48 0 -12.78 -65.22c-2.69,-12.1 -13.45,-21.52 -26.22,-21.52l-94.13 0c-14.79,0 -26.89,12.1 -26.89,26.9 0,14.79 12.1,26.89 26.89,26.89l71.94 0 53.79 270.96c2.69,14.12 8.74,26.89 17.48,36.98 15.46,-15.46 36.31,-24.2 59.84,-24.2 36.98,0 69.25,23.53 80.68,56.48l69.93 0c12.1,-32.94 43.7,-56.48 80.69,-56.48 24.2,0 46.39,10.09 61.86,26.89 9.41,-10.76 16.13,-23.53 18.82,-37.65l27.57 -125.06c-14.79,4.71 -30.26,7.4 -46.39,7.4 -72.62,-0.67 -133.8,-53.12 -148.59,-122.37l-0.01 -0zm135.82 336.18c0,-26.74 -21.67,-48.41 -48.41,-48.41 -26.74,0 -48.41,21.67 -48.41,48.41 0,26.74 21.67,48.41 48.41,48.41 26.74,0 48.41,-21.67 48.41,-48.41zm-231.29 0c0,-26.74 -21.68,-48.41 -48.41,-48.41 -26.74,0 -48.41,21.67 -48.41,48.41 0,26.74 21.67,48.41 48.41,48.41 26.74,0 48.41,-21.67 48.41,-48.41z"/>
    <path class="fil2" d="M537.37 71.08c-63.87,0 -114.97,51.77 -114.97,114.97 0,63.2 51.77,114.98 114.97,114.98 63.87,0 114.98,-51.77 114.98,-114.98 0,-63.2 -51.78,-114.97 -114.98,-114.97zm51.1 133.8l-32.94 0 0 32.94c0,10.09 -8.74,18.83 -18.83,18.83 -10.08,0 -18.82,-8.74 -18.82,-18.83l0 -32.94 -32.95 0c-10.08,0 -18.82,-8.74 -18.82,-18.83 0,-10.08 8.74,-18.82 18.82,-18.82l32.95 0 0 -32.28c0,-10.09 8.74,-18.83 18.82,-18.83 10.09,0 18.83,8.74 18.83,18.83l0 32.94 32.94 0c10.09,0 18.83,8.74 18.83,18.83 0,10.09 -8.07,18.15 -18.83,18.15l0 0.01z"/>
   </g>
  </g>
 </g>
</svg>
